# xmcd CD database file
#
# Track frame offsets:
#	150
#	14472
#	28245
#	37022
#	51431
#	65036
#	79153
#	93601
#	107691
#	118386
#	129457
#	142540
#
# Disc length: 2095 seconds
#
# Revision: 0
# Processed by: cddbd v1.5.2PL0 Copyright (c) Steve Scherf et al.
# Submitted via: CDex 1.72
#
DISCID=ac082d0c
DTITLE=Embraceable You CD 2 OF 3 - Various Artists
DYEAR=2002
DGENRE=Jazz
TTITLE0=Fly Me To The Moon
TTITLE1=All The Way
TTITLE2=Somewhere, My Love
TTITLE3=You Belong To Me
TTITLE4=An Affair To Remember
TTITLE5=Our Love Is Here To Stay
TTITLE6=Blue Moon
TTITLE7=I Could Write A Book
TTITLE8=Come Softly To Me
TTITLE9=I've Got The World On A String
TTITLE10=You're Just In Love
TTITLE11=Dream A Little Dream Of Me
EXTD=YEAR: 2002
EXTT0=
EXTT1=
EXTT2=
EXTT3=
EXTT4=
EXTT5=
EXTT6=
EXTT7=
EXTT8=
EXTT9=
EXTT10=
EXTT11=
PLAYORDER=
